<?xml version="1.0" standalone="no"?>
<!DOCTYPE svg PUBLIC "-//W3C//DTD SVG 20010904//EN"
 "http://www.w3.org/TR/2001/REC-SVG-20010904/DTD/svg10.dtd">
<svg version="1.0" xmlns="http://www.w3.org/2000/svg"
 width="568.000000pt" height="980.000000pt" viewBox="0 0 568.000000 980.000000"
 preserveAspectRatio="xMidYMid meet">

<g transform="translate(0.000000,980.000000) scale(0.100000,-0.100000)"
fill="#000000" stroke="none">
<path d="M4992 9780 c-41 -11 -99 -34 -130 -51 -45 -25 -559 -534 -2457 -2430
l-2400 -2399 2385 -2385 c1367 -1368 2408 -2401 2439 -2422 93 -62 180 -87
301 -88 84 0 118 5 172 23 223 77 369 279 370 512 0 99 -18 175 -65 265 -26
52 -301 331 -2046 2077 l-2016 2018 2016 2017 c1745 1747 2020 2026 2046 2078
116 226 74 490 -105 657 -135 126 -334 176 -510 128z"/>
</g>
</svg>
