<?xml version="1.0" standalone="no"?>
<!DOCTYPE svg PUBLIC "-//W3C//DTD SVG 20010904//EN"
 "http://www.w3.org/TR/2001/REC-SVG-20010904/DTD/svg10.dtd">
<svg version="1.0" xmlns="http://www.w3.org/2000/svg"
 width="178.000000pt" height="323.000000pt" viewBox="0 0 178.000000 323.000000"
 preserveAspectRatio="xMidYMid meet">

<g transform="translate(0.000000,323.000000) scale(0.100000,-0.100000)"
fill="#000000" stroke="none">
<path d="M96 3187 c-66 -38 -94 -126 -65 -204 5 -15 309 -327 682 -701 l672
-672 -666 -668 c-367 -367 -674 -678 -683 -692 -21 -32 -21 -112 0 -156 33
-69 132 -102 207 -70 18 8 344 326 774 757 815 818 781 778 754 872 -11 37
-106 136 -754 785 -408 408 -756 749 -773 757 -45 21 -103 18 -148 -8z"/>
</g>
</svg>
